<mxfile host="app.diagrams.net" modified="2023-05-20T12:31:21.723Z" agent="Mozilla/5.0 (Macintosh; Intel Mac OS X 10_15_7) AppleWebKit/537.36 (KHTML, like Gecko) Chrome/113.0.0.0 Safari/537.36" etag="g9HXkcvNQ2QXAeRGGZ8e" version="21.3.2" type="github">
  <diagram id="R2lEEEUBdFMjLlhIrx00" name="Page-1">
    <mxGraphModel dx="1306" dy="836" grid="1" gridSize="10" guides="1" tooltips="1" connect="1" arrows="1" fold="1" page="1" pageScale="1" pageWidth="850" pageHeight="1100" math="0" shadow="0" extFonts="Permanent Marker^https://fonts.googleapis.com/css?family=Permanent+Marker">
      <root>
        <mxCell id="0" />
        <mxCell id="1" parent="0" />
        <mxCell id="C-vyLk0tnHw3VtMMgP7b-1" value="" style="edgeStyle=entityRelationEdgeStyle;endArrow=ERzeroToMany;startArrow=ERone;endFill=1;startFill=0;" parent="1" source="C-vyLk0tnHw3VtMMgP7b-24" target="C-vyLk0tnHw3VtMMgP7b-6" edge="1">
          <mxGeometry width="100" height="100" relative="1" as="geometry">
            <mxPoint x="340" y="720" as="sourcePoint" />
            <mxPoint x="440" y="620" as="targetPoint" />
          </mxGeometry>
        </mxCell>
        <mxCell id="C-vyLk0tnHw3VtMMgP7b-12" value="" style="edgeStyle=entityRelationEdgeStyle;endArrow=ERzeroToMany;startArrow=ERone;endFill=1;startFill=0;" parent="1" source="C-vyLk0tnHw3VtMMgP7b-3" target="C-vyLk0tnHw3VtMMgP7b-17" edge="1">
          <mxGeometry width="100" height="100" relative="1" as="geometry">
            <mxPoint x="400" y="180" as="sourcePoint" />
            <mxPoint x="460" y="205" as="targetPoint" />
          </mxGeometry>
        </mxCell>
        <mxCell id="C-vyLk0tnHw3VtMMgP7b-2" value="Orders" style="shape=table;startSize=30;container=1;collapsible=1;childLayout=tableLayout;fixedRows=1;rowLines=0;fontStyle=1;align=center;resizeLast=1;" parent="1" vertex="1">
          <mxGeometry x="450" y="120" width="250" height="130" as="geometry" />
        </mxCell>
        <mxCell id="C-vyLk0tnHw3VtMMgP7b-3" value="" style="shape=partialRectangle;collapsible=0;dropTarget=0;pointerEvents=0;fillColor=none;points=[[0,0.5],[1,0.5]];portConstraint=eastwest;top=0;left=0;right=0;bottom=1;" parent="C-vyLk0tnHw3VtMMgP7b-2" vertex="1">
          <mxGeometry y="30" width="250" height="30" as="geometry" />
        </mxCell>
        <mxCell id="C-vyLk0tnHw3VtMMgP7b-4" value="PK" style="shape=partialRectangle;overflow=hidden;connectable=0;fillColor=none;top=0;left=0;bottom=0;right=0;fontStyle=1;" parent="C-vyLk0tnHw3VtMMgP7b-3" vertex="1">
          <mxGeometry width="30" height="30" as="geometry" />
        </mxCell>
        <mxCell id="C-vyLk0tnHw3VtMMgP7b-5" value="order_id int NOT NULL " style="shape=partialRectangle;overflow=hidden;connectable=0;fillColor=none;top=0;left=0;bottom=0;right=0;align=left;spacingLeft=6;fontStyle=5;" parent="C-vyLk0tnHw3VtMMgP7b-3" vertex="1">
          <mxGeometry x="30" width="220" height="30" as="geometry" />
        </mxCell>
        <mxCell id="C-vyLk0tnHw3VtMMgP7b-6" value="" style="shape=partialRectangle;collapsible=0;dropTarget=0;pointerEvents=0;fillColor=none;points=[[0,0.5],[1,0.5]];portConstraint=eastwest;top=0;left=0;right=0;bottom=0;" parent="C-vyLk0tnHw3VtMMgP7b-2" vertex="1">
          <mxGeometry y="60" width="250" height="30" as="geometry" />
        </mxCell>
        <mxCell id="C-vyLk0tnHw3VtMMgP7b-7" value="FK1" style="shape=partialRectangle;overflow=hidden;connectable=0;fillColor=none;top=0;left=0;bottom=0;right=0;" parent="C-vyLk0tnHw3VtMMgP7b-6" vertex="1">
          <mxGeometry width="30" height="30" as="geometry" />
        </mxCell>
        <mxCell id="C-vyLk0tnHw3VtMMgP7b-8" value="customer_id int NOT NULL" style="shape=partialRectangle;overflow=hidden;connectable=0;fillColor=none;top=0;left=0;bottom=0;right=0;align=left;spacingLeft=6;" parent="C-vyLk0tnHw3VtMMgP7b-6" vertex="1">
          <mxGeometry x="30" width="220" height="30" as="geometry" />
        </mxCell>
        <mxCell id="C-vyLk0tnHw3VtMMgP7b-9" value="" style="shape=partialRectangle;collapsible=0;dropTarget=0;pointerEvents=0;fillColor=none;points=[[0,0.5],[1,0.5]];portConstraint=eastwest;top=0;left=0;right=0;bottom=0;" parent="C-vyLk0tnHw3VtMMgP7b-2" vertex="1">
          <mxGeometry y="90" width="250" height="30" as="geometry" />
        </mxCell>
        <mxCell id="C-vyLk0tnHw3VtMMgP7b-10" value="" style="shape=partialRectangle;overflow=hidden;connectable=0;fillColor=none;top=0;left=0;bottom=0;right=0;" parent="C-vyLk0tnHw3VtMMgP7b-9" vertex="1">
          <mxGeometry width="30" height="30" as="geometry" />
        </mxCell>
        <mxCell id="C-vyLk0tnHw3VtMMgP7b-11" value="order_date date NOT NULL" style="shape=partialRectangle;overflow=hidden;connectable=0;fillColor=none;top=0;left=0;bottom=0;right=0;align=left;spacingLeft=6;" parent="C-vyLk0tnHw3VtMMgP7b-9" vertex="1">
          <mxGeometry x="30" width="220" height="30" as="geometry" />
        </mxCell>
        <mxCell id="C-vyLk0tnHw3VtMMgP7b-13" value="Shipments" style="shape=table;startSize=30;container=1;collapsible=1;childLayout=tableLayout;fixedRows=1;rowLines=0;fontStyle=1;align=center;resizeLast=1;" parent="1" vertex="1">
          <mxGeometry x="450" y="280" width="250" height="130" as="geometry" />
        </mxCell>
        <mxCell id="C-vyLk0tnHw3VtMMgP7b-14" value="" style="shape=partialRectangle;collapsible=0;dropTarget=0;pointerEvents=0;fillColor=none;points=[[0,0.5],[1,0.5]];portConstraint=eastwest;top=0;left=0;right=0;bottom=1;" parent="C-vyLk0tnHw3VtMMgP7b-13" vertex="1">
          <mxGeometry y="30" width="250" height="30" as="geometry" />
        </mxCell>
        <mxCell id="C-vyLk0tnHw3VtMMgP7b-15" value="PK" style="shape=partialRectangle;overflow=hidden;connectable=0;fillColor=none;top=0;left=0;bottom=0;right=0;fontStyle=1;" parent="C-vyLk0tnHw3VtMMgP7b-14" vertex="1">
          <mxGeometry width="30" height="30" as="geometry" />
        </mxCell>
        <mxCell id="C-vyLk0tnHw3VtMMgP7b-16" value="shipment_id int NOT NULL " style="shape=partialRectangle;overflow=hidden;connectable=0;fillColor=none;top=0;left=0;bottom=0;right=0;align=left;spacingLeft=6;fontStyle=5;" parent="C-vyLk0tnHw3VtMMgP7b-14" vertex="1">
          <mxGeometry x="30" width="220" height="30" as="geometry" />
        </mxCell>
        <mxCell id="C-vyLk0tnHw3VtMMgP7b-17" value="" style="shape=partialRectangle;collapsible=0;dropTarget=0;pointerEvents=0;fillColor=none;points=[[0,0.5],[1,0.5]];portConstraint=eastwest;top=0;left=0;right=0;bottom=0;" parent="C-vyLk0tnHw3VtMMgP7b-13" vertex="1">
          <mxGeometry y="60" width="250" height="30" as="geometry" />
        </mxCell>
        <mxCell id="C-vyLk0tnHw3VtMMgP7b-18" value="FK1" style="shape=partialRectangle;overflow=hidden;connectable=0;fillColor=none;top=0;left=0;bottom=0;right=0;" parent="C-vyLk0tnHw3VtMMgP7b-17" vertex="1">
          <mxGeometry width="30" height="30" as="geometry" />
        </mxCell>
        <mxCell id="C-vyLk0tnHw3VtMMgP7b-19" value="order_id int NOT NULL" style="shape=partialRectangle;overflow=hidden;connectable=0;fillColor=none;top=0;left=0;bottom=0;right=0;align=left;spacingLeft=6;" parent="C-vyLk0tnHw3VtMMgP7b-17" vertex="1">
          <mxGeometry x="30" width="220" height="30" as="geometry" />
        </mxCell>
        <mxCell id="C-vyLk0tnHw3VtMMgP7b-20" value="" style="shape=partialRectangle;collapsible=0;dropTarget=0;pointerEvents=0;fillColor=none;points=[[0,0.5],[1,0.5]];portConstraint=eastwest;top=0;left=0;right=0;bottom=0;" parent="C-vyLk0tnHw3VtMMgP7b-13" vertex="1">
          <mxGeometry y="90" width="250" height="30" as="geometry" />
        </mxCell>
        <mxCell id="C-vyLk0tnHw3VtMMgP7b-21" value="" style="shape=partialRectangle;overflow=hidden;connectable=0;fillColor=none;top=0;left=0;bottom=0;right=0;" parent="C-vyLk0tnHw3VtMMgP7b-20" vertex="1">
          <mxGeometry width="30" height="30" as="geometry" />
        </mxCell>
        <mxCell id="C-vyLk0tnHw3VtMMgP7b-22" value="shipment_date date NOT NULL" style="shape=partialRectangle;overflow=hidden;connectable=0;fillColor=none;top=0;left=0;bottom=0;right=0;align=left;spacingLeft=6;" parent="C-vyLk0tnHw3VtMMgP7b-20" vertex="1">
          <mxGeometry x="30" width="220" height="30" as="geometry" />
        </mxCell>
        <mxCell id="C-vyLk0tnHw3VtMMgP7b-23" value="Customers" style="shape=table;startSize=30;container=1;collapsible=1;childLayout=tableLayout;fixedRows=1;rowLines=0;fontStyle=1;align=center;resizeLast=1;" parent="1" vertex="1">
          <mxGeometry x="120" y="120" width="250" height="100" as="geometry" />
        </mxCell>
        <mxCell id="C-vyLk0tnHw3VtMMgP7b-24" value="" style="shape=partialRectangle;collapsible=0;dropTarget=0;pointerEvents=0;fillColor=none;points=[[0,0.5],[1,0.5]];portConstraint=eastwest;top=0;left=0;right=0;bottom=1;" parent="C-vyLk0tnHw3VtMMgP7b-23" vertex="1">
          <mxGeometry y="30" width="250" height="30" as="geometry" />
        </mxCell>
        <mxCell id="C-vyLk0tnHw3VtMMgP7b-25" value="PK" style="shape=partialRectangle;overflow=hidden;connectable=0;fillColor=none;top=0;left=0;bottom=0;right=0;fontStyle=1;" parent="C-vyLk0tnHw3VtMMgP7b-24" vertex="1">
          <mxGeometry width="30" height="30" as="geometry" />
        </mxCell>
        <mxCell id="C-vyLk0tnHw3VtMMgP7b-26" value="customer_id int NOT NULL " style="shape=partialRectangle;overflow=hidden;connectable=0;fillColor=none;top=0;left=0;bottom=0;right=0;align=left;spacingLeft=6;fontStyle=5;" parent="C-vyLk0tnHw3VtMMgP7b-24" vertex="1">
          <mxGeometry x="30" width="220" height="30" as="geometry" />
        </mxCell>
        <mxCell id="C-vyLk0tnHw3VtMMgP7b-27" value="" style="shape=partialRectangle;collapsible=0;dropTarget=0;pointerEvents=0;fillColor=none;points=[[0,0.5],[1,0.5]];portConstraint=eastwest;top=0;left=0;right=0;bottom=0;" parent="C-vyLk0tnHw3VtMMgP7b-23" vertex="1">
          <mxGeometry y="60" width="250" height="30" as="geometry" />
        </mxCell>
        <mxCell id="C-vyLk0tnHw3VtMMgP7b-28" value="" style="shape=partialRectangle;overflow=hidden;connectable=0;fillColor=none;top=0;left=0;bottom=0;right=0;" parent="C-vyLk0tnHw3VtMMgP7b-27" vertex="1">
          <mxGeometry width="30" height="30" as="geometry" />
        </mxCell>
        <mxCell id="C-vyLk0tnHw3VtMMgP7b-29" value="customer_name char(50) NOT NULL" style="shape=partialRectangle;overflow=hidden;connectable=0;fillColor=none;top=0;left=0;bottom=0;right=0;align=left;spacingLeft=6;" parent="C-vyLk0tnHw3VtMMgP7b-27" vertex="1">
          <mxGeometry x="30" width="220" height="30" as="geometry" />
        </mxCell>
        <mxCell id="6QLyIg8TJ_slAMYFn-KV-1" value="" style="rounded=0;whiteSpace=wrap;html=1;fontSize=10.5;" vertex="1" parent="1">
          <mxGeometry x="350" y="820" width="1000" height="720" as="geometry" />
        </mxCell>
        <mxCell id="6QLyIg8TJ_slAMYFn-KV-2" value="密码" style="ellipse;whiteSpace=wrap;html=1;fontSize=10.5;" vertex="1" parent="1">
          <mxGeometry x="450" y="1170" width="120" height="80" as="geometry" />
        </mxCell>
        <mxCell id="6QLyIg8TJ_slAMYFn-KV-3" value="用户表" style="rounded=0;whiteSpace=wrap;html=1;fontSize=10.5;" vertex="1" parent="1">
          <mxGeometry x="780" y="1130" width="110" height="60" as="geometry" />
        </mxCell>
        <mxCell id="6QLyIg8TJ_slAMYFn-KV-4" value="账号" style="ellipse;whiteSpace=wrap;html=1;fontSize=10.5;" vertex="1" parent="1">
          <mxGeometry x="930" y="920" width="120" height="80" as="geometry" />
        </mxCell>
        <mxCell id="6QLyIg8TJ_slAMYFn-KV-5" value="id" style="ellipse;whiteSpace=wrap;html=1;fontSize=10.5;" vertex="1" parent="1">
          <mxGeometry x="790" y="900" width="120" height="80" as="geometry" />
        </mxCell>
        <mxCell id="6QLyIg8TJ_slAMYFn-KV-6" value="个性签名" style="ellipse;whiteSpace=wrap;html=1;fontSize=10.5;" vertex="1" parent="1">
          <mxGeometry x="660" y="920" width="120" height="80" as="geometry" />
        </mxCell>
        <mxCell id="6QLyIg8TJ_slAMYFn-KV-7" value="状态" style="ellipse;whiteSpace=wrap;html=1;fontSize=10.5;" vertex="1" parent="1">
          <mxGeometry x="530" y="970" width="120" height="80" as="geometry" />
        </mxCell>
        <mxCell id="6QLyIg8TJ_slAMYFn-KV-8" value="加密盐" style="ellipse;whiteSpace=wrap;html=1;fontSize=10.5;" vertex="1" parent="1">
          <mxGeometry x="440" y="1060" width="120" height="80" as="geometry" />
        </mxCell>
        <mxCell id="6QLyIg8TJ_slAMYFn-KV-9" value="是否管理员" style="ellipse;whiteSpace=wrap;html=1;fontSize=10.5;" vertex="1" parent="1">
          <mxGeometry x="1050" y="970" width="120" height="80" as="geometry" />
        </mxCell>
        <mxCell id="6QLyIg8TJ_slAMYFn-KV-10" value="昵称" style="ellipse;whiteSpace=wrap;html=1;fontSize=10.5;" vertex="1" parent="1">
          <mxGeometry x="490" y="1260" width="120" height="80" as="geometry" />
        </mxCell>
        <mxCell id="6QLyIg8TJ_slAMYFn-KV-11" value="邮箱" style="ellipse;whiteSpace=wrap;html=1;fontSize=10.5;" vertex="1" parent="1">
          <mxGeometry x="900" y="1340" width="120" height="80" as="geometry" />
        </mxCell>
        <mxCell id="6QLyIg8TJ_slAMYFn-KV-12" value="手机号" style="ellipse;whiteSpace=wrap;html=1;fontSize=10.5;" vertex="1" parent="1">
          <mxGeometry x="590" y="1310" width="120" height="80" as="geometry" />
        </mxCell>
        <mxCell id="6QLyIg8TJ_slAMYFn-KV-13" value="最后登陆时间" style="ellipse;whiteSpace=wrap;html=1;fontSize=10.5;" vertex="1" parent="1">
          <mxGeometry x="740" y="1350" width="120" height="80" as="geometry" />
        </mxCell>
        <mxCell id="6QLyIg8TJ_slAMYFn-KV-14" value="是否删除" style="ellipse;whiteSpace=wrap;html=1;fontSize=10.5;" vertex="1" parent="1">
          <mxGeometry x="1020" y="1280" width="120" height="80" as="geometry" />
        </mxCell>
        <mxCell id="6QLyIg8TJ_slAMYFn-KV-15" value="注册时间" style="ellipse;whiteSpace=wrap;html=1;fontSize=10.5;" vertex="1" parent="1">
          <mxGeometry x="1120" y="1180" width="120" height="80" as="geometry" />
        </mxCell>
        <mxCell id="6QLyIg8TJ_slAMYFn-KV-16" value="&lt;font style=&quot;font-size: 10.5px;&quot;&gt;头像&lt;/font&gt;" style="ellipse;whiteSpace=wrap;html=1;fontSize=10.5;" vertex="1" parent="1">
          <mxGeometry x="1120" y="1060" width="120" height="80" as="geometry" />
        </mxCell>
        <mxCell id="6QLyIg8TJ_slAMYFn-KV-17" value="" style="endArrow=none;html=1;rounded=0;entryX=1;entryY=0;entryDx=0;entryDy=0;fontSize=10.5;" edge="1" parent="1" source="6QLyIg8TJ_slAMYFn-KV-4" target="6QLyIg8TJ_slAMYFn-KV-3">
          <mxGeometry width="50" height="50" relative="1" as="geometry">
            <mxPoint x="860" y="1240" as="sourcePoint" />
            <mxPoint x="910" y="1190" as="targetPoint" />
          </mxGeometry>
        </mxCell>
        <mxCell id="6QLyIg8TJ_slAMYFn-KV-20" value="" style="endArrow=none;html=1;rounded=0;exitX=1;exitY=0.25;exitDx=0;exitDy=0;fontSize=10.5;" edge="1" parent="1" source="6QLyIg8TJ_slAMYFn-KV-3" target="6QLyIg8TJ_slAMYFn-KV-9">
          <mxGeometry width="50" height="50" relative="1" as="geometry">
            <mxPoint x="880" y="1130" as="sourcePoint" />
            <mxPoint x="910" y="1190" as="targetPoint" />
          </mxGeometry>
        </mxCell>
        <mxCell id="6QLyIg8TJ_slAMYFn-KV-22" value="" style="endArrow=none;html=1;rounded=0;exitX=1;exitY=0.5;exitDx=0;exitDy=0;fontSize=10.5;" edge="1" parent="1" source="6QLyIg8TJ_slAMYFn-KV-3" target="6QLyIg8TJ_slAMYFn-KV-16">
          <mxGeometry width="50" height="50" relative="1" as="geometry">
            <mxPoint x="900" y="1155" as="sourcePoint" />
            <mxPoint x="1076" y="1047" as="targetPoint" />
          </mxGeometry>
        </mxCell>
        <mxCell id="6QLyIg8TJ_slAMYFn-KV-23" value="" style="endArrow=none;html=1;rounded=0;exitX=1;exitY=0.75;exitDx=0;exitDy=0;entryX=0;entryY=0.5;entryDx=0;entryDy=0;fontSize=10.5;" edge="1" parent="1" source="6QLyIg8TJ_slAMYFn-KV-3" target="6QLyIg8TJ_slAMYFn-KV-15">
          <mxGeometry width="50" height="50" relative="1" as="geometry">
            <mxPoint x="910" y="1165" as="sourcePoint" />
            <mxPoint x="1086" y="1057" as="targetPoint" />
          </mxGeometry>
        </mxCell>
        <mxCell id="6QLyIg8TJ_slAMYFn-KV-24" value="" style="endArrow=none;html=1;rounded=0;exitX=1;exitY=1;exitDx=0;exitDy=0;fontSize=10.5;" edge="1" parent="1" source="6QLyIg8TJ_slAMYFn-KV-3" target="6QLyIg8TJ_slAMYFn-KV-14">
          <mxGeometry width="50" height="50" relative="1" as="geometry">
            <mxPoint x="920" y="1175" as="sourcePoint" />
            <mxPoint x="1096" y="1067" as="targetPoint" />
          </mxGeometry>
        </mxCell>
        <mxCell id="6QLyIg8TJ_slAMYFn-KV-25" value="" style="endArrow=none;html=1;rounded=0;exitX=0.864;exitY=1.033;exitDx=0;exitDy=0;exitPerimeter=0;fontSize=10.5;" edge="1" parent="1" source="6QLyIg8TJ_slAMYFn-KV-3" target="6QLyIg8TJ_slAMYFn-KV-11">
          <mxGeometry width="50" height="50" relative="1" as="geometry">
            <mxPoint x="930" y="1185" as="sourcePoint" />
            <mxPoint x="1106" y="1077" as="targetPoint" />
          </mxGeometry>
        </mxCell>
        <mxCell id="6QLyIg8TJ_slAMYFn-KV-26" value="" style="endArrow=none;html=1;rounded=0;exitX=0.573;exitY=1.033;exitDx=0;exitDy=0;exitPerimeter=0;fontSize=10.5;" edge="1" parent="1" source="6QLyIg8TJ_slAMYFn-KV-3" target="6QLyIg8TJ_slAMYFn-KV-13">
          <mxGeometry width="50" height="50" relative="1" as="geometry">
            <mxPoint x="940" y="1195" as="sourcePoint" />
            <mxPoint x="1116" y="1087" as="targetPoint" />
          </mxGeometry>
        </mxCell>
        <mxCell id="6QLyIg8TJ_slAMYFn-KV-27" value="" style="endArrow=none;html=1;rounded=0;exitX=0.25;exitY=1;exitDx=0;exitDy=0;entryX=1;entryY=0;entryDx=0;entryDy=0;fontSize=10.5;" edge="1" parent="1" source="6QLyIg8TJ_slAMYFn-KV-3" target="6QLyIg8TJ_slAMYFn-KV-12">
          <mxGeometry width="50" height="50" relative="1" as="geometry">
            <mxPoint x="950" y="1205" as="sourcePoint" />
            <mxPoint x="1126" y="1097" as="targetPoint" />
          </mxGeometry>
        </mxCell>
        <mxCell id="6QLyIg8TJ_slAMYFn-KV-28" value="" style="endArrow=none;html=1;rounded=0;exitX=0;exitY=1;exitDx=0;exitDy=0;fontSize=10.5;" edge="1" parent="1" source="6QLyIg8TJ_slAMYFn-KV-3" target="6QLyIg8TJ_slAMYFn-KV-10">
          <mxGeometry width="50" height="50" relative="1" as="geometry">
            <mxPoint x="960" y="1215" as="sourcePoint" />
            <mxPoint x="1136" y="1107" as="targetPoint" />
          </mxGeometry>
        </mxCell>
        <mxCell id="6QLyIg8TJ_slAMYFn-KV-29" value="" style="endArrow=none;html=1;rounded=0;exitX=0;exitY=0.75;exitDx=0;exitDy=0;fontSize=10.5;" edge="1" parent="1" source="6QLyIg8TJ_slAMYFn-KV-3" target="6QLyIg8TJ_slAMYFn-KV-2">
          <mxGeometry width="50" height="50" relative="1" as="geometry">
            <mxPoint x="970" y="1225" as="sourcePoint" />
            <mxPoint x="1146" y="1117" as="targetPoint" />
          </mxGeometry>
        </mxCell>
        <mxCell id="6QLyIg8TJ_slAMYFn-KV-30" value="" style="endArrow=none;html=1;rounded=0;exitX=0;exitY=0.5;exitDx=0;exitDy=0;fontSize=10.5;" edge="1" parent="1" source="6QLyIg8TJ_slAMYFn-KV-3" target="6QLyIg8TJ_slAMYFn-KV-8">
          <mxGeometry width="50" height="50" relative="1" as="geometry">
            <mxPoint x="980" y="1235" as="sourcePoint" />
            <mxPoint x="1156" y="1127" as="targetPoint" />
          </mxGeometry>
        </mxCell>
        <mxCell id="6QLyIg8TJ_slAMYFn-KV-31" value="" style="endArrow=none;html=1;rounded=0;exitX=0;exitY=0;exitDx=0;exitDy=0;fontSize=10.5;" edge="1" parent="1" source="6QLyIg8TJ_slAMYFn-KV-3" target="6QLyIg8TJ_slAMYFn-KV-7">
          <mxGeometry width="50" height="50" relative="1" as="geometry">
            <mxPoint x="990" y="1245" as="sourcePoint" />
            <mxPoint x="1166" y="1137" as="targetPoint" />
          </mxGeometry>
        </mxCell>
        <mxCell id="6QLyIg8TJ_slAMYFn-KV-32" value="" style="endArrow=none;html=1;rounded=0;exitX=0.25;exitY=0;exitDx=0;exitDy=0;fontSize=10.5;" edge="1" parent="1" source="6QLyIg8TJ_slAMYFn-KV-3" target="6QLyIg8TJ_slAMYFn-KV-6">
          <mxGeometry width="50" height="50" relative="1" as="geometry">
            <mxPoint x="1000" y="1255" as="sourcePoint" />
            <mxPoint x="1176" y="1147" as="targetPoint" />
          </mxGeometry>
        </mxCell>
        <mxCell id="6QLyIg8TJ_slAMYFn-KV-34" value="" style="endArrow=none;html=1;rounded=0;exitX=0.75;exitY=0;exitDx=0;exitDy=0;fontSize=10.5;" edge="1" parent="1" source="6QLyIg8TJ_slAMYFn-KV-3" target="6QLyIg8TJ_slAMYFn-KV-5">
          <mxGeometry width="50" height="50" relative="1" as="geometry">
            <mxPoint x="1010" y="1265" as="sourcePoint" />
            <mxPoint x="1186" y="1157" as="targetPoint" />
          </mxGeometry>
        </mxCell>
      </root>
    </mxGraphModel>
  </diagram>
</mxfile>
